<svg width="147.26000366210937px" height="295.52000732421874px" xmlns="http://www.w3.org/2000/svg" viewBox="176.3699981689453 -72.76000366210937 147.26000366210937 295.52000732421874" style="background: rgba(0, 0, 0, 0);" preserveAspectRatio="xMidYMid"><defs><linearGradient id="editing-shiny-gradient" x1="0.312696703292044" x2="0.687303296707956" y1="0.03640807271660629" y2="0.9635919272833937" gradientUnits="objectBoundingBox"><stop offset="0.0" stop-color="#ffb200"></stop><stop offset="0.5" stop-color="#e10057"></stop><stop offset="1.0" stop-color="#5A1A80"></stop></linearGradient><linearGradient id="editing-shiny-gradient2" x1="0" x2="0" y1="0" y2="1"><stop offset="0.2" stop-color="#fff" stop-opacity="0.8"></stop><stop offset="0.8" stop-color="#fff" stop-opacity="0"></stop></linearGradient><filter id="editing-shiny2" x="-100%" y="-100%" width="300%" height="300%"><feMorphology operator="erode" radius="2"></feMorphology></filter><filter id="editing-shiny" x="-100%" y="-100%" width="300%" height="300%"><feFlood flood-color="#fff" result="flood"></feFlood><feConvolveMatrix in="SourceGraphic" result="conv" order="8,8" divisor="1" kernelMatrix="0 0 0 0 0 0 0 0 0 0 0 1 1 0 0 0 0 0 0 1 1 0 0 0 0 0 1 0 0 1 0 0 0 0 1 0 0 1 0 0 0 1 0 0 0 0 1 0 0 1 1 0 0 1 1 0 0 0 0 1 1 0 0 0 "></feConvolveMatrix><feOffset dx="0" dy="4" in="conv" result="offset"></feOffset><feComposite operator="in" in="flood" in2="offset" result="comp"></feComposite><feGaussianBlur in="offset" stdDeviation="3" result="shadow"></feGaussianBlur><feColorMatrix in="shadow" type="matrix" values="0.7 0 0 0 0  0 0.7 0 0 0  0 0 0.7 0 0  0 0 0 0.3 0" result="dark-shadow"></feColorMatrix><feOffset dx="0" dy="4" in="dark-shadow" result="offset-shadow"></feOffset><feOffset dx="0" dy="2" in="conv" result="offset-2"></feOffset><feComposite operator="out" in="offset" in2="offset-2" result="edge-diff"></feComposite><feGaussianBlur in="edge-diff" stdDeviation="1" result="edge-blur"></feGaussianBlur><feColorMatrix in="edge-blur" result="edge-shadow" type="matrix" values="0 0 0 0 0  0 0 0 0 0  0 0 0 0 0  0 0 0 0.5 0"></feColorMatrix><feComposite operator="in" in="edge-shadow" in2="offset" result="edge-shadow-in"></feComposite><feOffset dx="0" dy="1" in="edge-shadow-in" result="edge-shadow-final"></feOffset><feMerge result="out"><feMergeNode in="offset-shadow"></feMergeNode><feMergeNode in="comp"></feMergeNode><feMergeNode in="edge-shadow-final"></feMergeNode><feMergeNode in="SourceGraphic"></feMergeNode></feMerge></filter></defs><g filter="url(#editing-shiny)"><g transform="translate(199.71499061584473, 124.17000007629395)"><path d="M21.31-80.46L21.31-80.46Q21.31-85.23 20.19-86.87L20.19-86.87L20.19-86.87Q19.07-88.51 15.79-88.51L15.79-88.51L15.79-88.51Q14.30-88.51 12.81-88.36L12.81-88.36L12.81-88.36Q11.32-88.21 10.73-88.21L10.73-88.21L10.43-88.80L11.47-95.36L11.47-95.36Q13.26-95.21 18.18-95.06L18.18-95.06L18.18-95.06Q23.09-94.91 28.01-94.91L28.01-94.91L28.01-94.91Q32.03-94.91 37.18-95.43L37.18-95.43L37.18-95.43Q42.32-95.96 43.95-96.25L43.95-96.25L43.36-89.55L43.36-89.55Q37.85-88.66 35.76-86.79L35.76-86.79L35.76-86.79Q33.67-84.93 33.52-80.61L33.52-80.61L31.74-16.69L31.74-16.69Q31.59-10.73 32.93-8.64L32.93-8.64L32.93-8.64Q34.27-6.56 38.29-6.56L38.29-6.56L38.29-6.56Q40.53-6.56 42.46-6.71L42.46-6.71L42.46-6.71Q44.40-6.85 45.00-7.00L45.00-7.00L45.30-6.41L43.95 0.45L43.95 0.45Q42.02 0.30 36.65 0.15L36.65 0.15L36.65 0.15Q31.29 0 25.63 0L25.63 0L8.49 0.15L9.98-6.56L9.98-6.56Q14.75-7.00 17.06-8.05L17.06-8.05L17.06-8.05Q19.37-9.09 20.26-11.32L20.26-11.32L20.26-11.32Q21.16-13.56 21.16-17.88L21.16-17.88L21.31-80.46ZM36.21-49.02L62.88-76.73L62.88-76.73Q67.50-81.35 67.50-84.48L67.50-84.48L67.50-84.48Q67.50-88.36 58.11-88.95L58.11-88.95L57.81-89.55L58.85-95.96L58.85-95.96Q60.64-95.81 66.23-95.36L66.23-95.36L66.23-95.36Q71.82-94.91 75.24-94.91L75.24-94.91L75.24-94.91Q78.82-94.91 83.22-95.14L83.22-95.14L83.22-95.14Q87.61-95.36 88.95-95.51L88.95-95.51L89.55-94.47L88.51-88.36L88.51-88.36Q84.63-87.61 81.35-85.23L81.35-85.23L81.35-85.23Q78.08-82.84 71.37-75.84L71.37-75.84L47.38-50.66L72.41-18.03L72.41-18.03Q77.78-11.03 82.02-8.20L82.02-8.20L82.02-8.20Q86.27-5.36 91.49-5.36L91.49-5.36L92.08-4.77L91.19 0.30L91.19 0.30Q89.55 0.60 84.71 1.34L84.71 1.34L84.71 1.34Q79.86 2.09 78.82 2.09L78.82 2.09L78.82 2.09Q75.24 2.09 70.92-1.27L70.92-1.27L70.92-1.27Q66.60-4.62 62.13-10.73L62.13-10.73L36.06-46.93L36.21-49.02Z" fill="url(#editing-shiny-gradient)"></path></g></g><g filter="url(#editing-shiny2)"><g transform="translate(199.7150058746338, 124.16999816894531)"><path d="M21.31-80.46L21.31-80.46Q21.31-85.23 20.19-86.87L20.19-86.87L20.19-86.87Q19.07-88.51 15.79-88.51L15.79-88.51L15.79-88.51Q14.30-88.51 12.81-88.36L12.81-88.36L12.81-88.36Q11.32-88.21 10.73-88.21L10.73-88.21L10.43-88.80L11.47-95.36L11.47-95.36Q13.26-95.21 18.18-95.06L18.18-95.06L18.18-95.06Q23.09-94.91 28.01-94.91L28.01-94.91L28.01-94.91Q32.03-94.91 37.18-95.43L37.18-95.43L37.18-95.43Q42.32-95.96 43.95-96.25L43.95-96.25L43.36-89.55L43.36-89.55Q37.85-88.66 35.76-86.79L35.76-86.79L35.76-86.79Q33.67-84.93 33.52-80.61L33.52-80.61L31.74-16.69L31.74-16.69Q31.59-10.73 32.93-8.64L32.93-8.64L32.93-8.64Q34.27-6.56 38.29-6.56L38.29-6.56L38.29-6.56Q40.53-6.56 42.46-6.71L42.46-6.71L42.46-6.71Q44.40-6.85 45.00-7.00L45.00-7.00L45.30-6.41L43.95 0.45L43.95 0.45Q42.02 0.30 36.65 0.15L36.65 0.15L36.65 0.15Q31.29 0 25.63 0L25.63 0L8.49 0.15L9.98-6.56L9.98-6.56Q14.75-7.00 17.06-8.05L17.06-8.05L17.06-8.05Q19.37-9.09 20.26-11.32L20.26-11.32L20.26-11.32Q21.16-13.56 21.16-17.88L21.16-17.88L21.31-80.46ZM36.21-49.02L62.88-76.73L62.88-76.73Q67.50-81.35 67.50-84.48L67.50-84.48L67.50-84.48Q67.50-88.36 58.11-88.95L58.11-88.95L57.81-89.55L58.85-95.96L58.85-95.96Q60.64-95.81 66.23-95.36L66.23-95.36L66.23-95.36Q71.82-94.91 75.24-94.91L75.24-94.91L75.24-94.91Q78.82-94.91 83.22-95.14L83.22-95.14L83.22-95.14Q87.61-95.36 88.95-95.51L88.95-95.51L89.55-94.47L88.51-88.36L88.51-88.36Q84.63-87.61 81.35-85.23L81.35-85.23L81.35-85.23Q78.08-82.84 71.37-75.84L71.37-75.84L47.38-50.66L72.41-18.03L72.41-18.03Q77.78-11.03 82.02-8.20L82.02-8.20L82.02-8.20Q86.27-5.36 91.49-5.36L91.49-5.36L92.08-4.77L91.19 0.30L91.19 0.30Q89.55 0.60 84.71 1.34L84.71 1.34L84.71 1.34Q79.86 2.09 78.82 2.09L78.82 2.09L78.82 2.09Q75.24 2.09 70.92-1.27L70.92-1.27L70.92-1.27Q66.60-4.62 62.13-10.73L62.13-10.73L36.06-46.93L36.21-49.02Z" fill="url(#editing-shiny-gradient2)"></path></g></g><style>text {
  font-size: 64px;
  font-family: Arial Black;
  dominant-baseline: central;
  text-anchor: middle;
}</style></svg>