<svg width="167.76500549316407px" height="340.6400146484375px" xmlns="http://www.w3.org/2000/svg" viewBox="166.11749725341798 -95.32000732421875 167.76500549316407 340.6400146484375" style="background: rgba(0, 0, 0, 0);" preserveAspectRatio="xMidYMid"><defs><filter id="editing-extrude-glow"><feFlood flood-color="#6e7275" result="flood-1"></feFlood><feMorphology operator="erode" radius="1" in="SourceAlpha" result="erode"></feMorphology><feComposite operator="in" in="flood-1" in2="erode" result="comp1"></feComposite><feConvolveMatrix order="9,9" divisor="1" in="comp1" result="convolve" kernelMatrix="0 0 0 0 0 0 0 0 0 0 0 0 0 0 0 0 0 0 0 0 0 0 0 0 0 0 0 0 0 0 0 0 0 0 0 0 1 1 1 1 1 1 1 1 1 0 0 0 0 0 0 0 0 0 0 0 0 0 0 0 0 0 0 0 0 0 0 0 0 0 0 0 0 0 0 0 0 0 0 0 0"></feConvolveMatrix><feOffset dx="-9" dy="0" in="convolve" result="extrude"></feOffset><feComposite operator="in" in="flood-1" in2="extrude" result="comp-extrude"></feComposite><feFlood flood-color="#000000" result="flood-2"></feFlood><feComposite operator="in" in="flood-2" in2="SourceAlpha" result="comp2"></feComposite><feMorphology operator="dilate" radius="1" in="comp2" result="dilate"></feMorphology><feOffset dx="-13.5" dy="0" in="dilate" result="offset"></feOffset><feGaussianBlur in="offset" stdDeviation="5.8" result="blur"></feGaussianBlur><feComponentTransfer in="blur" result="shadow"><feFuncA type="linear" slope="0.8" intercept="-0.2"></feFuncA></feComponentTransfer><feMerge><feMergeNode in="shadow"></feMergeNode><feMergeNode in="comp-extrude"></feMergeNode><feMergeNode in="SourceGraphic"></feMergeNode></feMerge></filter></defs><g filter="url(#editing-extrude-glow)"><g transform="translate(191.61500644683838, 132.0900001525879)"><path d="M24.74-93.42L24.74-93.42Q24.74-98.96 23.44-100.86L23.44-100.86L23.44-100.86Q22.14-102.76 18.34-102.76L18.34-102.76L18.34-102.76Q16.61-102.76 14.88-102.59L14.88-102.59L14.88-102.59Q13.15-102.42 12.46-102.42L12.46-102.42L12.11-103.11L13.32-110.72L13.32-110.72Q15.40-110.55 21.11-110.37L21.11-110.37L21.11-110.37Q26.82-110.20 32.52-110.20L32.52-110.20L32.52-110.20Q37.20-110.20 43.16-110.81L43.16-110.81L43.16-110.81Q49.13-111.41 51.04-111.76L51.04-111.76L50.34-103.97L50.34-103.97Q43.94-102.94 41.52-100.77L41.52-100.77L41.52-100.77Q39.10-98.61 38.93-93.59L38.93-93.59L36.85-19.38L36.85-19.38Q36.68-12.46 38.23-10.03L38.23-10.03L38.23-10.03Q39.79-7.61 44.46-7.61L44.46-7.61L44.46-7.61Q47.06-7.61 49.31-7.79L49.31-7.79L49.31-7.79Q51.55-7.96 52.25-8.13L52.25-8.13L52.59-7.44L51.04 0.52L51.04 0.52Q48.79 0.35 42.56 0.17L42.56 0.17L42.56 0.17Q36.33 0 29.76 0L29.76 0L9.86 0.17L11.59-7.61L11.59-7.61Q17.13-8.13 19.81-9.34L19.81-9.34L19.81-9.34Q22.49-10.55 23.53-13.15L23.53-13.15L23.53-13.15Q24.57-15.74 24.57-20.76L24.57-20.76L24.74-93.42ZM42.04-56.92L73.01-89.10L73.01-89.10Q78.37-94.46 78.37-98.09L78.37-98.09L78.37-98.09Q78.37-102.59 67.47-103.28L67.47-103.28L67.12-103.97L68.34-111.41L68.34-111.41Q70.41-111.24 76.90-110.72L76.90-110.72L76.90-110.72Q83.39-110.20 87.37-110.20L87.37-110.20L87.37-110.20Q91.52-110.20 96.62-110.46L96.62-110.46L96.62-110.46Q101.72-110.72 103.28-110.89L103.28-110.89L103.97-109.68L102.76-102.59L102.76-102.59Q98.26-101.72 94.46-98.96L94.46-98.96L94.46-98.96Q90.65-96.19 82.87-88.06L82.87-88.06L55.01-58.82L84.08-20.93L84.08-20.93Q90.31-12.80 95.24-9.52L95.24-9.52L95.24-9.52Q100.17-6.23 106.22-6.23L106.22-6.23L106.91-5.54L105.88 0.35L105.88 0.35Q103.97 0.69 98.35 1.56L98.35 1.56L98.35 1.56Q92.73 2.42 91.52 2.42L91.52 2.42L91.52 2.42Q87.37 2.42 82.35-1.47L82.35-1.47L82.35-1.47Q77.33-5.36 72.14-12.46L72.14-12.46L41.87-54.50L42.04-56.92Z" fill="#f05555"></path></g></g><style>text {
  font-size: 64px;
  font-family: Arial Black;
  dominant-baseline: central;
  text-anchor: middle;
}</style></svg>